<svg width="450" height="450" viewBox="0 0 450 450" fill="none" xmlns="http://www.w3.org/2000/svg">
<path d="M144.469 397.397L52.125 301.688C48.7568 298.193 46.8749 293.529 46.875 288.675V161.325C46.87 156.465 48.7523 151.793 52.125 148.294L144.469 52.6031C146.219 50.7902 148.316 49.3487 150.636 48.3645C152.955 47.3803 155.449 46.8737 157.969 46.875H292.031C294.551 46.8737 297.045 47.3803 299.365 48.3645C301.684 49.3487 303.781 50.7902 305.531 52.6031L397.875 148.303C401.245 151.8 403.128 156.468 403.125 161.325V288.675C403.13 293.535 401.248 298.207 397.875 301.706L305.531 397.397C303.781 399.21 301.684 400.651 299.365 401.636C297.045 402.62 294.551 403.126 292.031 403.125H157.969C155.449 403.126 152.955 402.62 150.636 401.636C148.316 400.651 146.219 399.21 144.469 397.397V397.397Z" stroke="#eee" stroke-width="25"/>
<path d="M118.481 282.925H331.519C334.969 282.925 337.556 280.45 337.556 277.15V141.025C337.556 137.725 334.969 135.25 331.519 135.25H118.481C115.463 135.25 112.875 137.725 112.875 141.025V277.15C112.875 280.45 115.463 282.925 118.481 282.925Z" fill="#212528"/>
<path d="M95.625 303.137C95.625 309.738 101.231 316.75 108.562 316.75H341.438C348.337 316.75 354.375 309.738 354.375 303.137H95.625Z" fill="#212528"/>
<path d="M332.812 282.925H117.188L95.625 303.137H354.375L332.812 282.925Z" fill="#DDDDDD"/>
<path d="M325.481 284.575H124.519L117.188 292.825H332.812L325.481 284.575Z" fill="#BFBEBE"/>
<path d="M246.994 296.537H203.006L199.556 301.075H250.444L246.994 296.537Z" fill="#212528"/>
<path d="M125.812 147.625H324.188V270.55H125.812V147.625Z" fill="#3E4347"/>
<path d="M225 145.15C226.905 145.15 228.45 143.673 228.45 141.85C228.45 140.027 226.905 138.55 225 138.55C223.095 138.55 221.55 140.027 221.55 141.85C221.55 143.673 223.095 145.15 225 145.15Z" fill="#DDDDDD"/>
<path d="M243.544 311.8H206.456C205.163 311.8 201.713 311.8 201.713 307.675H248.288C248.288 311.8 244.837 311.8 243.544 311.8Z" fill="#3E4347"/>
<path d="M222.128 234.861V247.725H177.68V181.197H192.656V234.861H222.128ZM231.774 247.725V181.197H276.318V193.773H246.75V207.693H273.054V220.269H246.75V247.725H231.774Z" fill="white"/>
</svg>